<svg xml:space="preserve" style="max-height: 500px" viewBox="15 14.5 70 70.5" y="0px" x="0px" version="1.1" xmlns:xlink="http://www.w3.org/1999/xlink" xmlns="http://www.w3.org/2000/svg" width="70" height="70.5"><path d="M83.574,77.431l-3.238-34C80.041,40.335,77.473,38,74.363,38H66v-6c0-8.822-7.178-16-16-16s-16,7.178-16,16v6h-8.363  c-3.11,0-5.678,2.335-5.973,5.431l-3.238,34c-0.16,1.679,0.399,3.357,1.534,4.605C19.094,83.284,20.712,84,22.399,84h55.202  c1.687,0,3.305-0.716,4.439-1.963C83.175,80.789,83.734,79.11,83.574,77.431z M38,32c0-6.617,5.383-12,12-12s12,5.383,12,12v6H38V32  z M79.081,79.346C78.697,79.768,78.171,80,77.601,80H22.399c-0.57,0-1.096-0.232-1.479-0.654c-0.384-0.422-0.565-0.967-0.511-1.536  l3.238-34c0.098-1.032,0.954-1.81,1.991-1.81h48.726c1.037,0,1.893,0.778,1.991,1.81l3.238,34  C79.646,78.378,79.464,78.923,79.081,79.346z"/><text font-family="'Helvetica Neue', Helvetica, Arial-Unicode, Arial, Sans-serif" font-weight="bold" font-size="5px" fill="#000000" y="115" x="0">Created by Setyo Ari Wibowo</text><text font-family="'Helvetica Neue', Helvetica, Arial-Unicode, Arial, Sans-serif" font-weight="bold" font-size="5px" fill="#000000" y="120" x="0">from the Noun Project</text></svg>