<svg xmlns="http://www.w3.org/2000/svg" xmlns:xlink="http://www.w3.org/1999/xlink" version="1.1" x="0px" y="0px" viewBox="0 0 100 125" style="enable-background:new 0 0 100 100;" xml:space="preserve"><path d="M78.34,64L72,57.66c-2.34-2.34-6.14-2.34-8.48,0L61.17,60c-0.78,0.78-2.05,0.78-2.83,0L40,41.66  c-0.78-0.78-0.78-2.05,0-2.83l2.34-2.34c2.34-2.34,2.34-6.14,0-8.48L36,21.66c-2.34-2.34-6.14-2.34-8.48,0l-1.86,1.86  c-7.02,7.02-7.02,18.44,0,25.46l25.37,25.37c3.51,3.51,8.12,5.26,12.73,5.26s9.22-1.75,12.73-5.26l1.86-1.86  C80.68,70.15,80.68,66.34,78.34,64z M75.51,69.66l-1.86,1.86c-5.46,5.46-14.34,5.46-19.8,0L28.48,46.14  c-5.46-5.46-5.46-14.34,0-19.8l1.86-1.86c0.39-0.39,0.9-0.58,1.41-0.58s1.02,0.19,1.41,0.58l6.34,6.34c0.78,0.78,0.78,2.05,0,2.83  L37.17,36c-2.34,2.34-2.34,6.14,0,8.48l18.34,18.34c2.34,2.34,6.14,2.34,8.48,0l2.34-2.34c0.78-0.78,2.05-0.78,2.83,0l6.34,6.34  C76.29,67.61,76.29,68.88,75.51,69.66z"/><text x="0" y="115" fill="#000000" font-size="5px" font-weight="bold" font-family="'Helvetica Neue', Helvetica, Arial-Unicode, Arial, Sans-serif">Created by Setyo Ari Wibowo</text><text x="0" y="120" fill="#000000" font-size="5px" font-weight="bold" font-family="'Helvetica Neue', Helvetica, Arial-Unicode, Arial, Sans-serif">from the Noun Project</text></svg>