<svg y="0px" x="0px" version="1.1" viewBox="30 29.75 40.25 40.5" xmlns:xlink="http://www.w3.org/1999/xlink" xmlns="http://www.w3.org/2000/svg" style="max-height: 500px" width="40.25" height="40.5"><title>Search v2.3</title><desc>Created with Sketch.</desc><g fill-rule="evenodd" fill="none" stroke-width="1" stroke="none"><g fill="#000000" fill-rule="nonzero"><path d="M57.7092562,54.5437864 C57.4606042,54.8718023 57.4946849,55.3733645 57.7946865,55.6733661 L68.0606602,65.9393398 C68.6464466,66.5251263 68.6464466,67.4748737 68.0606602,68.0606602 C67.4748737,68.6464466 66.5251263,68.6464466 65.9393398,68.0606602 L55.6733661,57.7946865 C55.3775323,57.4988527 54.870823,57.4632715 54.540334,57.7112845 C54.540334,57.7112845 54.4163394,57.8176451 54.0360849,58.0712926 C51.7359064,59.6056195 48.9724001,60.5 46,60.5 C37.9918711,60.5 31.5,54.0081289 31.5,46 C31.5,37.9918711 37.9918711,31.5 46,31.5 C54.0081289,31.5 60.5,37.9918711 60.5,46 C60.5,48.9841075 59.5985602,51.7576725 58.053133,54.0632426 C57.8047159,54.4338477 57.7092562,54.5437864 57.7092562,54.5437864 Z M46,57.5 C52.3512746,57.5 57.5,52.3512746 57.5,46 C57.5,39.6487254 52.3512746,34.5 46,34.5 C39.6487254,34.5 34.5,39.6487254 34.5,46 C34.5,52.3512746 39.6487254,57.5 46,57.5 Z"/></g></g><text font-family="'Helvetica Neue', Helvetica, Arial-Unicode, Arial, Sans-serif" font-weight="bold" font-size="5px" fill="#000000" y="115" x="0">Created by Landan Lloyd</text><text font-family="'Helvetica Neue', Helvetica, Arial-Unicode, Arial, Sans-serif" font-weight="bold" font-size="5px" fill="#000000" y="120" x="0">from the Noun Project</text></svg>